<svg xmlns="http://www.w3.org/2000/svg" viewBox="0 0 64 64">
  <rect x="1" y="1" width="62" height="62" rx="12" fill="#6aff4e"/>
  <rect x="4.5" y="4.5" width="55" height="55" rx="9" fill="#274100"/>
  <path fill="#ffffff" d="M12 20h40v36H12V20zm6 8v8h8v-8h-8zm13 0v8h8v-8h-8zm13 0v8h4v-8h-4zM18 42v8h8v-8h-8zm13 0v8h8v-8h-8zm13 0v8h4v-8h-4z"/>
  <path fill="#ffd166" d="M24 8h16l12 12H12L24 8z"/>
  <path fill="#56d364" d="M32 11c3.5 0 6 2 6 5h-4c0-.8-.7-1.4-2-1.4s-2 .5-2 1.2c0 2.3 8 .7 8 5.8 0 2.2-1.6 3.8-4 4.4v2h-4v-2c-2.6-.6-4.3-2.3-4.3-4.6h4c0 .9.8 1.5 2.3 1.5 1.4 0 2.1-.5 2.1-1.3 0-2.3-8-.7-8-5.7 0-2.1 1.5-3.8 3.9-4.4V10h4v1z"/>
</svg>
