<svg xmlns="http://www.w3.org/2000/svg" viewBox="0 0 64 64">
  <rect x="1" y="1" width="62" height="62" rx="12" fill="#6aff4e"/>
  <rect x="4.5" y="4.5" width="55" height="55" rx="9" fill="#274100"/>
  <path fill="#ffffff" d="M14 18h20v38H14V18zm24 10h12v28H38V28z"/>
  <path fill="#56d364" d="M35 8c10 1 16 7 17 17-10-1-16-7-17-17z"/>
  <path fill="#56d364" d="M28 26c-9-1-14-6-15-15 9 1 14 6 15 15z"/>
  <path fill="#2a5bd7" d="M20 26h6v6h-6v-6zm0 11h6v6h-6v-6zm22-2h4v5h-4v-5zm0 9h4v5h-4v-5z"/>
</svg>
