<svg xmlns="http://www.w3.org/2000/svg" viewBox="0 0 64 64">
  <rect x="1" y="1" width="62" height="62" rx="12" fill="#6aff4e"/>
  <rect x="4.5" y="4.5" width="55" height="55" rx="9" fill="#274100"/>
  <path fill="#ffffff" d="M22 46a10 10 0 1 1-20 0 10 10 0 0 1 20 0zm40 0a10 10 0 1 1-20 0 10 10 0 0 1 20 0z"/>
  <path fill="#2a5bd7" d="M12 50a4 4 0 1 0 0-8 4 4 0 0 0 0 8zm40 0a4 4 0 1 0 0-8 4 4 0 0 0 0 8z"/>
  <path fill="#ffffff" d="M21 17h9l5 10h8v6H31l-4-8h-6v-8zM17 43l10-18 5 3-9 18-6-3zm15 3 14-19 5 4-13 18-6-3z"/>
  <path fill="#56d364" d="M45 8c8 1 12 5 13 13-8-1-12-5-13-13z"/>
</svg>
