<svg xmlns="http://www.w3.org/2000/svg" viewBox="0 0 64 64">
  <rect x="1" y="1" width="62" height="62" rx="12" fill="#6aff4e"/>
  <rect x="4.5" y="4.5" width="55" height="55" rx="9" fill="#274100"/>
  <path fill="#ffffff" d="M24 8h16l-3 28h-10L24 8z"/>
  <path fill="#ffffff" d="M29 36h6v14h10v6H19v-6h10V36z"/>
  <path fill="#ffd166" d="M42 11l4 5 6-1-3.4 5.1 2.6 5.7-6.1-1.7-4.6 4.2-.3-6.2-5.4-3.1 5.9-2.2L42 11z"/>
  <path fill="#8ee8ff" d="M17 18l2.4 3.1 3.9-.9-2.1 3.4 2 3.4-3.9-.9L17 29l-.3-4-3.7-1.5 3.7-1.5L17 18z"/>
</svg>
