<svg xmlns="http://www.w3.org/2000/svg" viewBox="0 0 64 64">
  <rect x="1" y="1" width="62" height="62" rx="12" fill="#6aff4e"/>
  <rect x="4.5" y="4.5" width="55" height="55" rx="9" fill="#274100"/>
  <path fill="#ffffff" d="M32 48a6 6 0 1 0 0-12 6 6 0 0 0 0 12z"/>
  <path fill="#ffffff" d="M19.8 31.8a17.3 17.3 0 0 1 24.4 0l4.3-4.3a23.4 23.4 0 0 0-33 0l4.3 4.3z"/>
  <path fill="#ffffff" d="M10.8 22.8a30 30 0 0 1 42.4 0l4.2-4.2a36 36 0 0 0-50.8 0l4.2 4.2z"/>
  <path fill="#8ee8ff" d="M32 9 38 22H26L32 9z"/>
</svg>
